<?xml version="1.0" standalone="no"?>
<!DOCTYPE svg PUBLIC "-//W3C//DTD SVG 20010904//EN"
 "http://www.w3.org/TR/2001/REC-SVG-20010904/DTD/svg10.dtd">
<svg version="1.0" xmlns="http://www.w3.org/2000/svg"
 width="530.000000pt" height="471.000000pt" viewBox="0 0 530.000000 471.000000"
 preserveAspectRatio="xMidYMid meet">

<g transform="translate(0.000000,471.000000) scale(0.100000,-0.100000)"
fill="#ff2293" stroke="none">
<path d="M2077 3459 c-54 -28 -88 -86 -91 -152 -3 -53 -4 -55 -81 -133 -144
-145 -250 -339 -292 -535 -16 -76 -18 -143 -18 -707 0 -606 1 -624 19 -638 30
-21 62 -17 85 12 20 26 21 39 21 312 l0 286 55 -81 c93 -135 252 -276 395
-348 134 -68 330 -115 478 -115 96 0 253 27 347 59 165 57 294 141 418 270 56
58 73 70 92 65 33 -8 100 13 136 43 38 32 68 95 69 141 0 36 -23 97 -45 122
-12 14 -12 21 1 58 8 24 21 91 30 150 28 182 6 374 -62 541 -19 47 -34 88 -34
92 0 4 25 22 55 39 l54 31 -19 34 c-100 178 -259 341 -429 439 -70 41 -66 42
-101 -26 -11 -20 -23 -39 -28 -41 -4 -3 -37 7 -73 23 -136 58 -228 75 -409 75
-141 0 -178 -4 -254 -24 l-88 -23 -48 26 c-59 32 -128 34 -183 5z m132 -123
c28 -30 24 -63 -10 -89 -26 -19 -28 -19 -58 -1 -17 10 -31 21 -31 25 0 4 -3
14 -6 23 -7 19 38 66 64 66 10 0 29 -11 41 -24z m588 9 c81 -13 125 -26 245
-73 l27 -11 -76 -131 c-56 -98 -78 -128 -88 -120 -25 21 -171 50 -252 50 -172
0 -316 -57 -448 -178 -58 -54 -128 -157 -152 -224 -15 -43 -24 -53 -59 -69
-60 -25 -96 -78 -102 -145 -8 -93 39 -174 115 -198 15 -5 36 -37 69 -104 77
-159 207 -271 384 -333 54 -19 86 -23 190 -23 104 0 136 4 190 23 211 73 364
230 426 436 25 82 25 267 0 350 -10 33 -20 69 -22 80 -4 17 14 31 110 88 63
37 121 67 128 67 15 0 60 -115 82 -210 21 -88 21 -307 0 -396 -21 -92 -29
-104 -65 -104 -43 0 -100 -34 -128 -78 -32 -48 -40 -135 -16 -181 16 -32 16
-33 -10 -67 -37 -48 -151 -138 -239 -188 -279 -159 -638 -158 -914 1 -240 139
-394 349 -457 621 -20 84 -20 306 0 392 17 71 68 205 99 260 36 63 122 174
169 218 45 41 70 51 81 33 9 -15 82 -23 127 -16 64 11 126 78 135 144 6 46 9
51 41 62 113 37 272 46 410 24z m-71 -836 c94 -89 -1 -245 -119 -195 -123 51
-75 238 56 222 22 -2 50 -15 63 -27z m-614 -46 c22 -20 23 -61 1 -85 -34 -38
-103 -11 -103 40 0 54 62 81 102 45z m1450 -480 c20 -18 24 -73 6 -91 -21 -21
-75 -15 -92 10 -21 30 -20 47 6 75 25 27 54 29 80 6z"/>
</g>
</svg>
